<svg width="633" height="590" viewBox="0 0 633 590" fill="none" xmlns="http://www.w3.org/2000/svg">
<path opacity="0.2" d="M213.417 231.658C216.628 222.681 224.855 216.728 234.05 216.728H460.342C475.696 216.728 486.336 232.69 480.974 247.681L419.673 419.069C416.462 428.047 408.236 434 399.041 434H172.749C157.394 434 146.755 418.038 152.116 403.047L213.417 231.658Z" fill="white"/>
<path opacity="0.4" d="M189.038 207.729C191.267 197.22 200.208 189.738 210.537 189.738H438.726C452.801 189.738 463.263 203.31 460.225 217.63L418.149 416.009C415.92 426.518 406.979 434 396.649 434H168.461C154.385 434 143.924 420.428 146.961 406.107L189.038 207.729Z" fill="white"/>
<path opacity="0.6" d="M164.975 183.418C166.096 171.685 175.57 162.747 186.886 162.747H415.919C428.941 162.747 439.119 174.459 437.829 187.961L416.307 413.33C415.187 425.062 405.713 434 394.397 434H165.363C152.341 434 142.164 422.288 143.453 408.786L164.975 183.418Z" fill="white"/>
<path d="M141.045 178.942C141.045 166.271 150.903 156 163.064 156H392.315C404.475 156 414.333 166.271 414.333 178.942V411.058C414.333 423.728 404.475 434 392.315 434H163.064C150.903 434 141.045 423.728 141.045 411.058V178.942Z" fill="white"/>
<path opacity="0.8" fill-rule="evenodd" clip-rule="evenodd" d="M319.621 293.896C319.621 268.781 300.725 248.659 277.689 248.659L277.689 216.728C317.513 216.728 349.573 251.409 349.573 293.896C349.573 336.383 317.513 371.063 277.689 371.063L277.689 339.132C300.725 339.132 319.621 319.011 319.621 293.896Z" fill="#262146"/>
<path fill-rule="evenodd" clip-rule="evenodd" d="M247.738 293.896C247.738 268.781 228.841 248.659 205.806 248.659L205.806 216.728C245.629 216.728 277.689 251.409 277.689 293.896C277.689 336.383 245.629 371.063 205.806 371.063L205.806 339.132C228.841 339.132 247.738 319.011 247.738 293.896Z" fill="#262146"/>
<path d="M277.689 371.063H205.806V339.289H277.689V371.063Z" fill="#514D6B"/>
<path d="M277.689 248.503H205.806V216.728H277.689V248.503Z" fill="#FF3E3E"/>
</svg>
