<svg width="28" height="28" viewBox="0 0 28 28" fill="none" xmlns="http://www.w3.org/2000/svg">
<path d="M7.58286 9.5328V4.78328C7.58286 4.46086 7.32167 4.19995 6.99953 4.19995C6.67738 4.19995 6.41619 4.46086 6.41619 4.78328V9.5328C5.4127 9.79363 4.6662 10.699 4.6662 11.7833C4.6662 12.8675 5.4127 13.7729 6.41619 14.0338V22.2833C6.41619 22.6057 6.67738 22.8666 6.99953 22.8666C7.32167 22.8666 7.58286 22.6057 7.58286 22.2833V14.0338C8.58635 13.7729 9.33285 12.8675 9.33285 11.7833C9.33285 10.699 8.58635 9.79363 7.58286 9.5328Z" fill="#5A5A89"/>
<path d="M14.5829 13.6161V4.78328C14.5829 4.46086 14.3217 4.19995 13.9995 4.19995C13.6774 4.19995 13.4162 4.46086 13.4162 4.78328V13.6161C12.4127 13.877 11.6662 14.7824 11.6662 15.8666C11.6662 16.9509 12.4127 17.8563 13.4162 18.1171V22.2833C13.4162 22.6057 13.6774 22.8666 13.9995 22.8666C14.3217 22.8666 14.5829 22.6057 14.5829 22.2833V18.1171C15.5863 17.8563 16.3328 16.9509 16.3328 15.8666C16.3328 14.7824 15.5863 13.877 14.5829 13.6161Z" fill="#5A5A89"/>
<path d="M23.3328 11.7833C23.3328 10.699 22.5863 9.79363 21.5829 9.5328V4.78328C21.5829 4.46086 21.3217 4.19995 20.9995 4.19995C20.6774 4.19995 20.4162 4.46086 20.4162 4.78328V9.5328C19.4127 9.79363 18.6662 10.699 18.6662 11.7833C18.6662 12.8675 19.4127 13.7729 20.4162 14.0338V22.2833C20.4162 22.6057 20.6774 22.8666 20.9995 22.8666C21.3217 22.8666 21.5829 22.6057 21.5829 22.2833V14.0338C22.5863 13.7729 23.3328 12.8675 23.3328 11.7833Z" fill="#5A5A89"/>
</svg>
